<svg xmlns="http://www.w3.org/2000/svg" viewBox="0 0 473.28 473.02"><defs><style>.cls-1{fill:#151515;}</style></defs><title>QR_black-only</title><g id="Layer_2" data-name="Layer 2"><g id="Layer_1-2" data-name="Layer 1"><path class="cls-1" d="M261.26,377.12l1.57-.32.36-1.69h12.24l.29-1.68,1.69-.32V360.84l1.67-.3.35-1.6h12.31c.09.49.18,1,.27,1.58l1.71.32v12.24l1.67.31c-.11,1.87,1.15,1.77,2.5,1.75,3.34-.06,6.68,0,10.08,0,.12.62.22,1.12.34,1.71,1.67-.11,1.8.88,1.77,2.22-.08,3.39,0,6.79,0,10.28,1.28.12,2.31.46,2,2h12.34c0-1.29.52-2.09,2-1.9,0-3.92,0-7.73,0-11.54a1.45,1.45,0,0,0-.53-.86c-.58-.52-1.21-1-1.83-1.46l.24-.46H312.21l.22-.37c-.65-.65-1.29-1.31-1.94-2l-.34.24v-28.3l.31.2a16.92,16.92,0,0,1,1.56-1.88,2.24,2.24,0,0,1,1.36-.47c3.61,0,7.22,0,10.82,0l-.22-.41a15.27,15.27,0,0,0,1.91-1.56,2.21,2.21,0,0,0,.5-1.37c.05-3.08,0-6.16,0-9.24v-1.66l1.7-.32c.12-.51.24-1.05.39-1.78h10.65c.87,0,1.65.09,1.83-1.18.06-.42,1-.72,1.73-1.23V312.54l2.25-2.11-.24-.51h28.59c.11-.76.18-1.26.26-1.84l1.66-.22V279.29l-1.64-.32c-.08-.53-.16-1-.27-1.69H361.05c-.12-.65-.21-1.15-.32-1.7l-1.63-.28V263l-1.7-.25-.38-1.69H312.23l.23-.52c-.61-.48-1.25-.94-1.82-1.46a1.45,1.45,0,0,1-.54-.85c0-3.81,0-7.62,0-11.44l.53.27c.46-.6.88-1.24,1.39-1.79a1.66,1.66,0,0,1,1-.54c.89-.08,1.8,0,2.7,0l55.78,0c.95,0,2.09.34,2.12-1.33,0-.29,1-.57,1.7-1V230.53l.43.21c.52-.66,1-1.35,1.57-2a1.46,1.46,0,0,1,.94-.42c3.76,0,7.53,0,11.29,0l-.25.47a17.49,17.49,0,0,1,1.75,1.45,2.1,2.1,0,0,1,.6,1.25c.06,3.19.05,6.38.05,9.56,0,.87-.12,1.75,1.16,1.81.2,0,.56.28.57.44.07,1.69,1.31,1.34,2.31,1.35,3.39,0,6.78,0,10.2,0,.27,1.19.36,2.41,2.14,1.86v28.74l1.77.31.23,1.68h12.2c.15.58.28,1.07.43,1.66l1.63.4v12.24l1.77.28.25,1.64h12.31l.29-1.66,1.71-.25V279.29l1.63-.32.37-1.57H455c.07.51.14,1,.22,1.52l1.69.38v28.47l1.76.35c-.11,1.71,1,1.81,2.34,1.78,3.39-.07,6.78,0,10.17,0l-.27.46,2.29,2.2v11.62c-1.16.12-2.15.43-1.86,2.09h-8.37a20.42,20.42,0,0,1-2.07,0c-1.33-.14-2.34.06-2.23,1.78l-1.65.24v28.52l-1.75.36-.3,1.59H442.65l-.32-1.57-1.65-.32V344.56l-1.73-.28c-.1-.53-.19-1-.3-1.63h-28.6l-.25,1.6-1.66.29v12.28l1.64.31c.09.51.18,1,.29,1.67H438.6c.13.62.24,1.12.37,1.7l1.64.34v12.27l1.73.28c.1.53.19,1,.31,1.7h28.52c.13.66.23,1.16.34,1.75,1.71-.13,1.77.91,1.76,2.22,0,8.29,0,16.57,0,24.85v1.8c-1.27.1-2.21.47-2,2H427l-2.22-2.26-.4.24V403q0-12.11,0-24.21c0-.9.18-1.89-1.24-1.87-.16,0-.47-.22-.47-.34,0-1.92-1.46-1.42-2.53-1.43-3.33,0-6.67,0-10,0-.11.63-.18,1.09-.28,1.66-1.68-.06-1.8,1-1.79,2.36,0,8.28,0,16.56,0,24.84,0,1,.18,2-1.29,2-.16,0-.44.25-.44.39-.08,1.77-1.39,1.38-2.43,1.38-3.34,0-6.69,0-9.54,0l-2.16,2.36-.5-.27v3q0,11.86,0,23.73c0,1.2.11,2.39-1.76,1.94-.1.67-.18,1.18-.27,1.77H377.37c-.13-.56-.24-1.07-.37-1.66-1.47.13-1.72-.65-1.68-1.94.08-3.49,0-7,0-10.58l-1.7-.29c-.1-.51-.19-1-.32-1.68H328.55c-.14-.62-.24-1.12-.37-1.72-1.63.06-1.81-.94-1.78-2.34.09-3.39,0-6.78,0-10.17l-.5.26a12.34,12.34,0,0,0-1.46-1.74,2.66,2.66,0,0,0-1.56-.61c-8,0-15.94,0-23.91,0a21,21,0,0,1-2.38,0,1.77,1.77,0,0,1-1-.59c-.5-.53-.93-1.12-1.38-1.69l-.47.23V393.64c-1-.36-2.18-.38-2.08-1.82a3.83,3.83,0,0,0-1.55-.35q-12.59,0-25.18,0h-1.81c-.11-.63-.2-1.13-.31-1.74l-1.61-.28Zm130.28,12.29V344.53l-1.66-.26c-.09-.58-.17-1.09-.24-1.6h-44.9c-.12.61-.22,1.12-.32,1.58l-1.59.32v44.85l1.65.23c.09.58.16,1.08.26,1.68h44.9c.08-.62.15-1.13.22-1.69Zm49-77.22c-.67-.43-1.62-.73-1.66-1.12-.14-1.32-1-1.17-1.82-1.17l-25.32,0h-1.71l-.25-1.78-1.7-.24c0-.56-.07-1.08-.07-1.6,0-3.13,0-6.26-.05-9.39a2,2,0,0,0-.38-1.28,19.27,19.27,0,0,0-2.07-1.63l.22-.31H393.84l.22.37c-.66.5-1.34,1-2,1.53a1.19,1.19,0,0,0-.4.79c0,3.81,0,7.63,0,11.44l.42-.27c.64.65,1.29,1.3,1.94,1.94l-.25.44c3.28,0,6.56,0,9.83,0,1.13,0,2.58-.48,2.72,1.44a.46.46,0,0,0,.35.28c1.57.05,1.32,1.18,1.32,2.16V324.1l.42-.24,2,1.91c-.22.31-.18.36-.13.36q13.77,0,27.54.07c.3,0,.88-.32.87-.45-.1-1.4,1-1.35,1.89-1.63Z"/><path class="cls-1" d="M181.51,277.17l-.22-1.56-1.7-.33v-28.5l-1.75-.34c.1-1.64-.86-1.81-2.22-1.78-3.43.09-6.88,0-10.35,0l-.27,1.76-1.79.28v10.48c0,1,.21,1.93-1.28,2.06-.35,0-.62,1-1,1.62H149.06l.22-.31a15.41,15.41,0,0,1-1.93-1.55,2.24,2.24,0,0,1-.46-1.4c0-3.07,0-6.15,0-9.23v-1.66l-1.73-.27-.33-1.79h-3.52c-2.5,0-5,0-7.49,0a2,2,0,0,1-1.26-.42,17.76,17.76,0,0,1-1.5-1.93l-.47.21c0-3.81,0-7.63,0-11.44,0-.2.06-.56.14-.57,1.17-.19,1.64-1,2.08-2,.1-.19.79-.15,1.21-.16,3.08,0,6.16,0,9.24,0,.52,0,1-.05,1.6-.07l.23-1.72,1.77-.23c0-3.86,0-7.72-.06-11.58,0-.42-1-.82-1.76-1.48l-.22-1.21H132.63c-.16-.62-.28-1.12-.43-1.71l-1.66-.33V197.74l-1.74-.33-.25-1.65h-12.3l-.3-1.69-1.65-.36V181.47l-1.72-.31-.36-1.71h-1.68l-41.59,0c-.91,0-1.88.16-1.9-1.22,0-.17-.21-.48-.33-.48-2-.08-1.42-1.61-1.44-2.7,0-3.28,0-6.56,0-9.86l-1.78-.26-.26-1.79c-3.35,0-6.68,0-10,0-1.07,0-2.45.48-2.6-1.43,0-.27-1-.48-1.63-.79V149.44l-2.36-2.16.26-.41H19l-2.14,2.19-.39-.24c0,.57-.07,1.13-.07,1.69q0,12.59,0,25.17c0,1,.2,2-1.3,2-.15,0-.44.24-.44.37,0,1.82-1.35,1.39-2.38,1.39-3.34,0-6.68,0-10.1,0l-.33-1.69c-1.56.08-1.8-.8-1.79-2.19q.08-20.7,0-41.41c0-1.29.23-2.08,1.74-2l.34-1.72H77.62c1,0,2.22-.3,2.27,1.36,0,.12.18.34.28.34,1.92,0,1.43,1.48,1.44,2.54,0,3.34,0,6.67,0,10l1.8.25.24,1.8c3.34,0,6.68,0,10,0,1.06,0,2.44-.49,2.61,1.41,0,.29,1,.49,1.62.81v11.45l2.37,2.14-.27.5c3.86,0,7.72,0,11.58,0,.25,0,.72-.31.71-.46-.05-1.26.82-1.43,1.84-1.51V148.9c-.81-.28-2-.33-1.9-1.74,0-.11-.81-.36-1.25-.36-3.13,0-6.26,0-9.4,0-.52,0-1,0-1.64-.08L99.68,145,98,144.73c0-3.85,0-7.72.07-11.58,0-.43.92-.84,1.71-1.52l.19-1.13h44.89l.23-1.79,1.81-.26V121c0-1.16,0-2.33,0-3.5,0-.77,0-1.41,1.07-1.59.44-.07.76-.92,1.32-1.67H161c.34-1,.34-2.17,1.79-2.07a2.43,2.43,0,0,0,.38-1.23c0-3.13,0-6.26.05-9.39,0-.53,0-1.05.07-1.68,1.24,0,2.17-.34,1.83-2,4,0,7.84-.05,11.7.06.43,0,.84.92,1.51,1.72l1.13.18v12.25l1.77.36.3,1.66h12.26l.35,1.72,1.59.3v28.59l-1.6.22-.3,1.68H181.56l-.29-1.62-1.72-.31c0-1.68,0-3.41,0-5.14s0-3.72,0-5.58c0-.88.1-1.75-1.2-1.75-.19,0-.54-.29-.54-.45,0-1.62-1.16-1.32-2.13-1.32H165.3l-.3,1.63c-1.83-.1-1.82,1.12-1.79,2.5.06,3.34,0,6.68,0,10.12-1.35,0-2.13.48-2,2-.66,0-1.22.08-1.79.09l-25.34,0c-.87,0-1.65-.09-1.84,1.17-.07.42-1,.71-1.72,1.17v2.51q0,12.18,0,24.37c0,.85,0,1.61,1.15,1.64.22,0,.62.35.63.54,0,1.41,1,1.25,1.88,1.25,3.5,0,7,0,10.6,0l.28,1.68,1.78.35v3.86q0,3.26,0,6.53c0,1-.3,2.07,1.33,2.16.31,0,.57,1,1,1.71h28.34l.4,1.74c1.71-.22,1.67.89,1.66,2.09,0,3.45,0,6.89,0,10.4l-1.71.36c.11,1.49-.73,1.76-2.06,1.72-3.44-.08-6.89,0-10.43,0l-.38,1.68c-1.67-.07-1.78,1-1.75,2.36.07,3.39,0,6.78,0,10.23l1.75.25.3,1.77h44.79l-.24.47c.62.62,1.23,1.25,1.84,1.87l.35-.23v11.8l-2.15,1.87.26.55H197.9l-.39,1.8-1.64.31v28.5l-1.71.36c-.09.47-.19,1-.32,1.58Z"/><path class="cls-1" d="M114.15,114.12H.18V.16h114ZM97.9,16.44H16.46V97.75H97.9Z"/><path class="cls-1" d="M473.16,114.11h-114V.1h114Zm-97.71-97.7V97.76h81.42V16.41Z"/><path class="cls-1" d="M114.15,358.94v114H.14v-114ZM97.87,456.6V375.25H16.46V456.6Z"/><path class="cls-1" d="M261.17,149.06V210l1.7.27c.09.53.17,1,.28,1.74,3.6,0,7.21,0,10.81,0,1.18,0,1.85.27,1.7,1.62l1.72.44v12.23l1.75.25c.1.52.19,1,.32,1.75h12.26c.08,1.36.54,2.21,2,2v12.3c-1.08.22-2.27.34-1.73,2.12H279.45c-.13.7-.23,1.21-.33,1.76l-1.65.24v28.57l-1.69.29c-.1.46-.2,1-.34,1.59H246.83l-.2-1.5-1.7-.41V263l1.66-.28.27-1.72h10.51c1,0,2,.21,2-1.3,0-.15.24-.44.37-.44,1.81,0,1.41-1.33,1.41-2.38,0-3.33,0-6.67,0-10.09l-1.69-.34c.07-1.57-.81-1.82-2.2-1.78-3.44.1-6.88,0-10.32,0l.27-.48-2-1.9-.39.23V239.7q0-12,0-24c0-.93.1-1.79-1.26-1.93-.36,0-.63-.95-1.07-1.66H230.63c-.37-1.07-.31-2.44-2.14-1.84,0-4.12,0-8,0-11.84a1.15,1.15,0,0,1,.45-.75c.58-.48,1.21-.91,1.82-1.35l-.23-.51h12.06c.42-.86.24-2.12,1.68-2,.14,0,.48-.44.48-.68,0-3.87,0-7.73,0-11.67-1.27-.05-2.16-.38-1.87-1.87H230.59l.24.38a13.82,13.82,0,0,0-1.8,1.41,2.12,2.12,0,0,0-.53,1.31c-.05,3.14,0,6.27-.05,9.4,0,.52,0,1-.08,1.64l-1.67.32-.3,1.71c-3.45,0-6.94,0-10.42,0-1.16,0-2.41-.21-2,1.74-1.88-.23-1.83.89-1.82,2.09,0,3.44,0,6.89,0,10.42l-1.71.3-.3,1.61H197.86l-.33-1.57-1.59-.3V181.4l1.53-.23c.12-.51.23-1,.39-1.7h12.2c.14-.67.24-1.17.36-1.76,1.54.12,1.76-.75,1.73-2.06-.07-3.5,0-7,0-10.5l-1.67-.22c-.09-.49-.19-1-.33-1.69-.71,0-1.48-.1-2.25-.11-2.87,0-5.74,0-8.61,0-.82,0-1.54.07-1.69-1.13-.05-.41-1-.73-1.65-1.21V149.49c.77-1,1.27-1.61,1.82-2.22a1.48,1.48,0,0,1,.75-.46,5.14,5.14,0,0,1,1.11,0h57.53c1,0,2.2-.32,2.33,1.37C259.49,148.44,260.39,148.66,261.17,149.06Z"/><path class="cls-1" d="M277.52,340.49l-1.74.37c.05,1.64-1,1.74-2.36,1.71-3.4-.08-6.79,0-10.26,0-.11.63-.19,1.13-.29,1.71l-1.71.3v28.51l-1.74.36c.12,1.53-.75,1.76-2.06,1.73-3.49-.08-7,0-10.51,0l-.21-1.66-1.81-.39V344.63l-.46.26-2.22-2.31H230.74l.21-.4c-.69-.54-1.41-1.05-2.07-1.62a1.19,1.19,0,0,1-.38-.8c0-3.81,0-7.62,0-11.52,1.34,0,2.1-.43,1.87-1.89.72,0,1.29-.1,1.85-.1l25.5,0c.85,0,1.5,0,1.69-1.15.08-.44,1-.75,1.66-1.25V312.07l-.35.22a23.85,23.85,0,0,0-1.53-2,1.67,1.67,0,0,0-1.1-.42c-8.87,0-17.74,0-26.61,0a1.22,1.22,0,0,0-.47,0c-.19.07-.5.24-.49.32.29,1.68-2.31,1.22-2.12,3.2.34,3.52.09,7.09.09,10.7-1.32.1-2.22.49-2,2.1-3.68,0-7.22.05-10.77,0-1.23,0-1.94.28-1.83,1.7l-1.76.4v8c0,.79,0,1.59,0,2.39,0,1.2.11,2.38-1.69,2l-.36,1.8c-3.86,0-7.67,0-11.49-.06-.44,0-.87-.87-1.08-1.6l-1.58-.35V312l.33.22a15.13,15.13,0,0,1,1.51-1.93,2.35,2.35,0,0,1,1.43-.42c3.08,0,6.16,0,9.24,0h1.65l.3-1.75,1.74-.29V301.9c0-1.53-.08-3.08,0-4.61.07-1.25-.13-2.13-1.7-2-.11-.57-.21-1.07-.35-1.75H197.85l-.32-1.74L196,291.6V279.25l1.5-.28.37-1.59h44.84l-.23.39a14,14,0,0,1,1.93,1.47,2.25,2.25,0,0,1,.41,1.42c.05,3.08,0,6.16.05,9.24,0,.52,0,1,.07,1.65l1.67.28.3,1.72H291.7c.13.65.22,1.1.32,1.65l1.59.39v12.27l-1.59.22c-.09.53-.17,1-.29,1.8h-5.5l-4.94,0c-1,0-2.07-.26-2.16,1.34,0,.28-.92.5-1.61.86Z"/><path class="cls-1" d="M277.37,67.68v11.8c-.94.21-2,.28-1.9,1.65,0,.12-.59.4-.91.4-9.18,0-18.36,0-27.62,0-.2-1.13-.36-2.26-2.12-1.84V75.9c0-2.34,0-4.67,0-7,0-.93.1-1.86-1.25-1.9-.16,0-.45-.23-.46-.37-.12-1.86-1.51-1.38-2.59-1.4-2.92,0-5.84,0-8.76,0a2.38,2.38,0,0,1-1.37-.66A15,15,0,0,1,229,62.9l-.57.25V54.77c0-1,0-1.91,0-2.86a1.69,1.69,0,0,1,.46-1.08,21.11,21.11,0,0,1,1.84-1.39l-.22-.5h12.07c.34-1.09.29-2.44,2.17-1.83v-8c0-1.16,0-2.33,0-3.5a2,2,0,0,0-.61-1.1,19.79,19.79,0,0,0-1.66-1.37l.24-.42H231.29a26.33,26.33,0,0,0-2.42,1.87,2,2,0,0,0-.38,1.29c0,3.13,0,6.26,0,9.39,0,.52,0,1-.08,1.64l-1.68.25-.28,1.75c-3.14,0-6.32-.07-9.49,0-1.17,0-3-.83-3.09,1.49,0,0-.07.11-.11.11-2.53.3-1.48,2.26-1.54,3.55-.13,3,0,6,0,9.09l-1.74.24-.25,1.69h-12.3l-.31-1.65-1.61-.27V34.62l1.57-.34.34-1.65h12.28l.27-1.73,1.64-.29V18.31L210.41,18l-.27-1.73c-3.57,0-7.12,0-10.67,0-1.07,0-2.21.13-1.77-1.59L196,14.29V2l1.55-.25L197.83.1c.58,0,1.16-.08,1.73-.08q28.91,0,57.83,0c1.21,0,2.17.06,2,1.7l1.78.4c0,2.53,0,5.11,0,7.69v2.7c0,1.78,0,1.78,1.71,2.2.1.48.2,1,.34,1.63h28.54c.1.66.19,1.16.28,1.72l1.62.26V30.62l-1.64.29c-.09.56-.16,1.06-.26,1.69H263.15l-.29,1.68-1.62.32V63.18l1.64.24c.08.54.15,1,.27,1.79h7c1.38,0,2.76,0,4.14,0,.76,0,1.26.09,1.44,1C275.78,66.73,276.59,67.05,277.37,67.68Z"/><path class="cls-1" d="M357,195.73c.11.6.19,1.06.3,1.63l1.58.36v28.59l-1.52.2c-.12.51-.25,1.05-.4,1.7H344.74l-.27-1.66-1.74-.26c0-3.55,0-7.09,0-10.64,0-.92.14-1.88-1.26-1.86-.15,0-.45-.22-.46-.35,0-1.92-1.48-1.4-2.53-1.41-3.34,0-6.68,0-10,0l-.22-1.66-1.81-.39v-9.19c0-.74,0-1.49,0-2.23a1.52,1.52,0,0,0-.47-.9c-.57-.49-1.22-.89-1.83-1.33l.26-.53h-12.1c-.33-1-.38-2.13-1.8-2.08a3.71,3.71,0,0,1-.35-1.55q0-14.25,0-28.51,0-6.69,0-13.37c0-.83-.09-1.64,1.09-1.72.21,0,.58-.26.59-.42.1-1.65,1.3-1.35,2.33-1.35h10.19c.3-1.14.28-2.46,2.12-1.85,0-4.1,0-8,0-11.81a1.21,1.21,0,0,0-.47-.73c-.6-.5-1.24-.94-1.86-1.4l.25-.54H297.57c-1.19,0-2.4.15-2-1.67l-1.71-.36V100.5L296,98.36l-.25-.37H308l.24,1.6,1.78.29v7.29c0,1.27,0,2.54,0,3.82,0,.78.13,1.24,1.07,1.42.46.09.78.89,1.37,1.64h11.77l-.25-.4a13.74,13.74,0,0,0,1.92-1.44,2.27,2.27,0,0,0,.44-1.4c0-3.08,0-6.16,0-9.24V99.91l1.72-.33.31-1.59h12.25l.37,1.58,1.66.35v28.53l1.74.27c.09.55.16,1.06.27,1.74H357c.14.63.25,1.08.37,1.63l1.57.38v12.28l-1.59.22c-.09.53-.18,1-.3,1.76H344.77c-.06,1.38-.58,2.18-2,2v12.1l-.41-.21a20.27,20.27,0,0,1-1.62,2,1.88,1.88,0,0,1-1.26.42c-3.13,0-6.26,0-9.4,0-.52,0-1,0-1.63.07l-.26,1.66-1.75.3c0,3.84-.05,7.7.07,11.56,0,.42.94.82,1.76,1.49l.21,1.2h12.16c.16.61.28,1.11.44,1.69l1.65.36v12.24l1.74.32c.09.54.16,1.05.27,1.7Z"/><path class="cls-1" d="M178.31,373.32l1.25-.25V360.83l1.65-.29.33-1.61h28.63c.07.53.14,1,.22,1.54l1.63.37v12.28l-1.58.28-.32,1.73h-5.79c-1.59,0-3.19.07-4.77,0-1.25-.07-2.12.13-2,1.66l-1.72.4V405.7c-1,.22-2.08.29-2,1.66,0,.12-.59.4-.91.4-9.18,0-18.37,0-27.63,0-.18-1.14-.36-2.26-2.11-1.85v-4.45c0-2.12,0-4.24,0-6.37,0-.93.08-1.85-1.25-1.89-.17,0-.45-.24-.46-.38-.09-1.74-1.39-1.38-2.44-1.39h-9.56l-2.1-2.35-.55.27v-7.74c0-.91-.08-1.81,0-2.71.12-1.31-.18-2.2-1.75-2.07-.11-.59-.21-1.09-.33-1.73H132.61l-.41-1.7-1.63-.32V328.29l-1.73-.26-.32-1.79H118.09c-1,0-2.06.26-2.15-1.35,0-.3-1-.54-1.63-.86v-12l.34.22c.5-.65,1-1.33,1.52-1.93a1.39,1.39,0,0,1,.94-.42c9.18,0,18.37,0,27.63,0,.21,1.11.37,2.25,2.11,1.84v2.06q0,20.71,0,41.41c0,.9-.17,1.83,1.26,1.9.33,0,.62.94,1.08,1.7h11.9l-.25.53a13.82,13.82,0,0,1,1.8,1.41,2.18,2.18,0,0,1,.53,1.33c.05,3.14,0,6.27.05,9.4,0,.52,0,1,.07,1.64l1.68.27.28,1.72c3.84,0,7.7,0,11.56-.07C177.26,375,177.66,374.11,178.31,373.32Z"/><path class="cls-1" d="M114.2,230.59v11.93c-.79.37-2,.22-1.93,1.65,0,.14-.85.47-1.31.47-3.13.06-6.27,0-9.4.06-.52,0-1,0-1.62.07-.1.6-.19,1.1-.28,1.68l-1.7.26c0,3.84,0,7.65.06,11.46,0,.46.81.9,1.25,1.35l.34-.26L100,261h44.83c.09.66.16,1.12.24,1.7l1.69.37v12.26l-1.68.3-.24,1.72H132.58l-.37,1.62c-1.67,0-1.71,1.07-1.69,2.4.07,3.39,0,6.78,0,10.24l-1.72.27-.27,1.64h-12.3l-.31-1.62-1.69-.28V279.3l-1.7-.33-.31-1.66H83.66l-.25-1.72-1.75-.31v-12.2l-.47.25-1.94-2,.22-.36H52.57c-.92,0-1.88.14-1.85-1.26,0-.16-.23-.46-.35-.46-1.93,0-1.42-1.47-1.42-2.53,0-8.28,0-16.56,0-24.84,0-.87-.11-1.74,1.16-1.8.2,0,.56-.28.56-.44,0-1.59,1.19-1.32,2.17-1.32H110.5c.94,0,1.94-.23,2,1.29C112.56,230,113.51,230.21,114.2,230.59Z"/><path class="cls-1" d="M359.12,181.41l1.55-.25c.11-.47.22-1,.38-1.67h44.79l-.24-.54c.66-.49,1.34-1,2-1.49a1.19,1.19,0,0,0,.42-.77c0-3.82,0-7.63,0-11.45l-.4.26-2-1.95.24-.43H379c-.9,0-1.82.17-1.94-1.24,0-.36-.93-.64-1.63-1.08,0-.22-.08-.68-.08-1.14q0-12.81,0-25.64c0-.85-.15-1.77,1.17-1.79.19,0,.55-.28.55-.43,0-1.6,1.16-1.33,2.14-1.33h10.38c.12.62.22,1.12.33,1.71,1.73-.14,1.79.92,1.76,2.23-.06,3.39,0,6.78,0,9.71l2.35,2.08-.26.44h12.13c.26-1,.44-2.19,2.16-1.83,0-3.64,0-7.13,0-10.62,0-1.24.12-2.14,1.71-2l.38-1.73c3.84,0,7.71,0,11.57,0,.27,0,.74.36.76.59.07.84.45,1.12,1.26,1.32.32.07.62,1,.62,1.51,0,8,0,16,0,24V161c1.17.22,2.34.36,1.81,2.12h12.48c.12.71.22,1.22.32,1.77l1.56.22v12.25l-1.57.39c-.1.46-.21,1-.35,1.64H426.35c-.11.68-.2,1.19-.29,1.74l-1.7.28v12.19l-1.69.43c-.1.46-.22,1-.36,1.61H393.85l.22.44a16.14,16.14,0,0,0-1.91,1.55,2.33,2.33,0,0,0-.47,1.39c0,3.08,0,6.16,0,9.24V210l-1.79.26-.24,1.73c-3.84,0-7.66,0-11.47-.06-.46,0-.9-.81-1.35-1.25l.26-.34-1.69-.38V197.76l-1.75-.35c-.09-.52-.17-1-.28-1.68H361.05l-.31-1.7-1.62-.3Z"/><path class="cls-1" d="M441.06,214.3l1.86-1.83-.24-.35h12.24l.3,1.52,1.66.42v12.17l1.78.33c-.12,1.67.87,1.81,2.21,1.78,3.4-.08,6.79,0,9.75,0l2.08,2.34.46-.26c0,.56.09,1.12.09,1.69,0,8.33,0,16.66,0,25,0,1.36-.16,2.3-1.83,2.19l-.2,1.6H442.7c-.12-.48-.25-1-.41-1.56l-1.61-.35V246.71l-1.67-.22c-.12-.51-.25-1.06-.43-1.78H410.14l.26-.47-2-1.93-.43.24V232.24c0-1,.26-2.12-1.32-2.16-.12,0-.34-.17-.35-.28-.18-2-1.72-1.44-2.87-1.46-3.22,0-6.45,0-9.68,0l.24-.42-1.93-2-.42.26q0-5.72,0-11.43a10,10,0,0,1,3.08-2.76c8.81,0,17.63,0,26.45,0,.43,0,.89.57,1.29.93.24.22.39.77.59.77,1.41,0,1.24,1,1.24,1.9,0,3.5,0,7,0,10.6l1.7.28c.08.47.18,1,.3,1.63h12.31c.1-.58.18-1.08.28-1.65l1.69-.22V214.19Z"/><path class="cls-1" d="M310.05,328.74c0,3.12-.05,6.61,0,10.11,0,1.29-.22,2.09-1.76,1.93-.11.56-.2,1.07-.33,1.75-3.85,0-7.73.2-11.56-.13a3.9,3.9,0,0,1-2.56-2.83c-.21-8.92-.12-17.84-.12-26.76a1.22,1.22,0,0,1,0-.47c.08-.17.26-.47.35-.45,1.67.28,1.19-2.35,3.2-2.09a72.17,72.17,0,0,0,9.07.07c.52,0,1-.05,1.62-.07.09-.6.15-1.11.23-1.7l1.81-.27v-6.6c0-1.33-.1-2.66,0-4s-.27-2.06-1.76-1.94l-.32-1.75c-3.56,0-7.11,0-10.66,0-1.16,0-2.1-.06-1.75-1.64l-1.73-.38V263l1.59-.36c-.15-1.62.86-1.71,2.1-1.69,3.45.06,6.9,0,10.45,0,.1.57.19,1.07.29,1.67l1.78.35v3.2c0,2.6,0,5.2,0,7.81,0,.72,0,1.27,1,1.49.51.11.85,1,1.53,1.76h44.46l.28,1.64,1.61.36v12.29l-1.58.26c-.1.51-.2,1-.33,1.69h-28.5l-.36,1.74c-1.64-.09-1.77.88-1.76,2.23,0,8.39,0,16.77,0,25.16,0,.9.07,1.74-1.19,1.79a.75.75,0,0,0-.56.45c0,1.57-1.16,1.34-2.15,1.34l-9.08,0c-.79,0-1.38,0-1.62,1C311.71,327.79,310.86,328.11,310.05,328.74Z"/><path class="cls-1" d="M195.91,442.36l1.6-.28.33-1.68h12.29l.27-1.71,1.64-.29V426.09l-1.62-.26-.28-1.7h-12.2l-.44-1.69-1.55-.35V409.81l1.56-.24.32-1.68c.57,0,1.09-.08,1.61-.08h41.74c.95,0,1.77-.06,1.91,1.27,0,.35.91.62,1.73,1.13v5.31c0,1.6.05,3.19,0,4.78,0,1.23,0,2.36,1.76,2,.11.65.2,1.16.31,1.8h12.16c.16.62.29,1.11.44,1.7l1.56.34v12.23l-1.55.33-.4,1.63H230.68l.2.42a17,17,0,0,0-1.89,1.58,2.14,2.14,0,0,0-.49,1.36c-.05,3.13,0,6.27-.05,9.4,0,.52,0,1-.08,1.61l-1.7.26-.25,1.74H215.78c-.91,0-1.89-.16-1.87,1.25a.63.63,0,0,1-.35.46c-1.82,0-1.4,1.34-1.41,2.39,0,3.38,0,6.77,0,10.18l-1.68.21-.35,1.71H197.84l-.3-1.68-1.63-.23Z"/><path class="cls-1" d="M179.54,63.16l-1.68.25c.06,1.64-.9,1.86-2.32,1.82-3.39-.09-6.78,0-10.17,0l.25.48a11.76,11.76,0,0,0-1.74,1.47,2.68,2.68,0,0,0-.62,1.57c0,8,0,15.92,0,23.87,0,.8,0,1.6,0,2.39a1.51,1.51,0,0,1-.44.93c-.61.55-1.29,1-1.94,1.51l.23.47H149l.24.51a15.41,15.41,0,0,0-1.94,1.43,2,2,0,0,0-.4,1.27c0,3.13,0,6.26,0,9.39,0,.52,0,1-.07,1.65l-1.68.33-.27,1.59H132.58l-.38-1.61c-1.58.16-1.68-.81-1.68-2.07,0-8.33,0-16.67,0-25V83.63l1.63-.3c-.1-1.86,1.15-1.8,2.52-1.78a74.75,74.75,0,0,0,9.78-.34l1.85-2,.54.27V72.53c0-1.22,0-2.44,0-3.66,0-.93.09-1.77-1.25-1.91-.36,0-.63-.9-1.17-1.75H139.8c-1.86,0-3.72-.09-5.57,0-1.31.07-2.08-.25-1.94-1.76l-1.73-.33c0-3.86,0-7.72,0-11.58,0-.44,2.81-2.65,3.29-2.65h42c.92,0,1.89-.15,1.86,1.26,0,.15.23.45.35.45,1.82,0,1.41,1.34,1.41,2.38C179.55,56.33,179.54,59.67,179.54,63.16Z"/><path class="cls-1" d="M440.68,471l-1.68.21c-.12.51-.25,1.06-.4,1.72-.52,0-1,.08-1.56.08H395.31c-.93,0-1.77.09-1.91-1.26,0-.35-.89-.62-1.74-1.16v-3.83c0-2.28,0-4.57,0-6.85a2.17,2.17,0,0,1,.57-1.3,16.34,16.34,0,0,1,1.7-1.39l-.22-.45h12.06c.37-1,.31-2.23,1.8-2.05a2.58,2.58,0,0,0,.38-1.23c0-3.13,0-6.26,0-9.39v-1.64l1.73-.38.32-1.65h12.2c.14-.66.25-1.16.39-1.77,1.65.21,1.7-.82,1.68-2.06-.05-3.49,0-7,0-10.48l1.67-.26c.1-.5.2-1,.33-1.62H455c.08.55.17,1,.26,1.61l1.62.26V438.4l-1.64.29c-.09.56-.16,1.07-.26,1.72h-12.3l-.3,1.62-1.66.39Z"/><path class="cls-1" d="M324.05,48.81H295.78l-.36-1.61-1.6-.33V34.67c1-.27,2.23-.34,1.74-2H308c.08-.63.13-1.09.2-1.67l1.8-.42V2.12l.57.26A18.58,18.58,0,0,1,312,.6,1.85,1.85,0,0,1,313.14,0c8.81,0,17.63,0,26.45,0,.6,0,1.2.8,1.8,1.23l-.28.46,1.62.31c0,3.86,0,7.68-.06,11.49,0,.45-.91.87-1.62,1.49.12,1.27-.94,1.29-2.17,1.27-3.44,0-6.89,0-10.41,0L328.2,18l-1.69.29c0,.57-.07,1.14-.07,1.72l0,25.32c0,.83.2,1.7-1.17,1.78C324.86,47.15,324.53,48.1,324.05,48.81Z"/><path class="cls-1" d="M312.38,472.49l-1.85-1.82-.44.25c0-3.85,0-7.71,0-11.56,0-.27.38-.55.61-.8A8.4,8.4,0,0,1,312,457.3a2.8,2.8,0,0,1,1.43-.58c3.6-.05,7.21,0,10.85,0,.31-1.08.29-2.39,2.15-1.8v-8.32c0-.8,0-1.59,0-2.39-.05-1.2-.12-2.38,1.73-2l.28-1.72h12.28c.12.53.22,1,.35,1.55,1.67,0,1.72,1.06,1.69,2.39-.07,3.39,0,6.77,0,10.24l1.72.28.29,1.7h28.5c.15.63.27,1.12.41,1.73,1.47-.1,1.73.74,1.7,2.06-.09,3.49,0,7,0,10.52l-1.73.24c-.08.56-.16,1.07-.25,1.68H312.23Z"/><path class="cls-1" d="M146.72,471l-1.65.23-.25,1.79c-3.48,0-7,0-10.45,0-1.26,0-2.27-.08-2.08-1.77l-1.75-.31V395.32c0-1-.25-2.12,1.33-2.14.12,0,.35-.17.36-.27.07-2,1.6-1.43,2.69-1.45,3.28,0,6.56,0,9.93,0,0,1.32.37,2.17,1.87,1.88Z"/><path class="cls-1" d="M18,213.77l.31-1.75c3.5,0,7,0,10.47,0,1.22,0,2.3,0,2.09,1.68l1.61.32v44.93l-1.56.4-.35,1.56H18.36l-.29-1.54L16.4,259V246.77l-1.78-.34c.14-1.71-.91-1.79-2.22-1.76-3.4.07-6.79,0-9.71,0L.58,242.34l-.56.27v-5.35c0-1.7,0-3.4,0-5.1,0-1-.18-2,1.38-2.14.27,0,.49-.89.91-1.69H7.08c1.85,0,3.72-.09,5.57,0,1.32.07,2.07-.27,1.93-1.77l1.77-.32c0-3.54,0-7.08,0-10.62C16.31,214.44,16.5,213.63,18,213.77Z"/><path class="cls-1" d="M0,279.28l1.72-.3.3-1.6H14.3l.39,1.61c1.59-.16,1.67.83,1.67,2.08q0,28.82,0,57.63c0,1.24,0,2.27-1.75,2.11.17,1.77-.91,1.76-2.12,1.75-3.45,0-6.89,0-10.38,0l-.32-1.71C.08,341,0,339.94,0,338.61q0-28.73,0-57.46Z"/><path class="cls-1" d="M62.93,310.34l1.83,1.86.37-.24v12.23c-1.26,0-2,.53-1.86,2.06H52.67c-1.71,0-1.71,0-2.06,1.71l-1.68.36c0,3.46,0,6.95,0,10.43,0,1.28-.13,2.22-1.76,2.06L47,342.55H36.35c-1.69,0-1.69,0-2.07-1.67l-1.55-.34V312l.33.22c.5-.65,1-1.33,1.51-1.93a1.38,1.38,0,0,1,1-.41q13.77,0,27.54,0Z"/><path class="cls-1" d="M81.16,291.27l-1.86,1.82.24.36H34.64l-.3-1.61-1.62-.25V279.27l1.6-.32.29-1.54h44.3c.94.75,1.61,1.23,2.21,1.79a1.38,1.38,0,0,1,.46.9c0,3.76,0,7.52,0,11.29Z"/><path class="cls-1" d="M112.51,308.14l-.27,1.7H100l.23.43-1.83,1.9-.4-.24v12l-.47-.22c-.53.7-1,1.41-1.61,2.07a1.19,1.19,0,0,1-.79.4c-3.81,0-7.63,0-11.44,0l.27-.44-2-1.91-.39.23v-2c0-8.22,0-16.45,0-24.68,0-1.26.09-2.25,1.75-2.09l.32-1.62h28.54l.34,1.54,1.57.38v12.24Z"/><path class="cls-1" d="M179.55,83.59l1.65-.23.34-1.65h28.6l.27,1.6,1.63.29v28.52l-1.6.34-.3,1.59H197.82l-.26-1.53-1.66-.37V99.91l-1.72-.31-.35-1.68H181.61l-.37-1.76c-1.56.13-1.74-.78-1.71-2.07C179.6,90.6,179.55,87.11,179.55,83.59Z"/><path class="cls-1" d="M230.76,98h11.56l2,2.21.4-.26c0,.41.11.81.12,1.22q0,13,0,25.93c0,.85,0,1.53-1.18,1.62-.39,0-.71,1-1.18,1.67H230.6c-.38-.85-.22-2.33-2-1.73-.06-.61-.14-1-.14-1.42q0-13,0-25.93c0-.82-.08-1.54,1.14-1.65C230,99.59,230.32,98.64,230.76,98Z"/><path class="cls-1" d="M454.78,163.11c-3.76,0-7.52,0-11.27,0-.32,0-.92-.29-.91-.41.1-1.37-1-1.39-2-1.67v-8.28c0-6.21,0-12.41,0-18.61,0-1.27.2-2.07,1.75-2-.21-1.79.91-1.73,2.1-1.72,3.44,0,6.88,0,10.4,0,.13.6.25,1.09.38,1.69,1.49-.1,1.71.75,1.71,2.06-.06,8.38,0,16.75,0,25.13v1.17c-.93.84-1.61,1.44-2.3,2.05Z"/><path class="cls-1" d="M324,212.45c.61.49,1.24,1,1.82,1.48a1.43,1.43,0,0,1,.53.85c0,3.81,0,7.62,0,11.51-1.35,0-2.19.44-1.92,2-.7,0-1.22.07-1.73.07-8.44,0-16.88,0-25.32,0-1.3,0-2.08-.23-1.94-1.75l-1.74-.33c0-3.86,0-7.72,0-11.58a1,1,0,0,1,.59-.76,1.23,1.23,0,0,0,1.29-1.28c0-.24.59-.59.92-.59q13.83,0,27.67,0Z"/><path class="cls-1" d="M261.14,470.93l-1.65.27C259.6,473,258.41,473,257,473c-8.23,0-16.46,0-24.68,0h-1.75c-.29-1.14-.32-2.42-2.11-1.84,0-4,0-7.86,0-11.66,0-.51,2.67-2.79,3.2-2.79,8.76,0,17.51,0,26.27,0,.8,0,1.36.12,1.39,1.08,0,.22.22.62.34.62,1.92,0,1.43,1.46,1.44,2.53C261.16,464.24,261.14,467.58,261.14,470.93Z"/><path class="cls-1" d="M326.43,79.42V77.7c0-8.33,0-16.65,0-25,0-1.25.07-2.27,1.75-2.1.11-.58.21-1.08.33-1.71H340a12.65,12.65,0,0,1,2.77,3c0,9.12,0,18.24-.37,27.15-.53.69-1,1.4-1.61,2.07a1.23,1.23,0,0,1-.8.38c-3.81,0-7.62,0-11.43,0l.28-.45-2-1.9Z"/><path class="cls-1" d="M177.8,177.7c.09,1.53-.68,1.79-2,1.76-3.5-.09-7,0-10.53,0l-.32-1.72c-1.71.14-1.78-.89-1.77-2.21,0-8.28,0-16.55,0-24.83v-1.28l2.34-2.12-.26-.48c3.81,0,7.61,0,11.42,0,.33,0,.68.47,1,.79s.31.86.49.87c1.66.09,1.36,1.27,1.36,2.29,0,8.27,0,16.55,0,24.82C179.56,176.84,179.5,177.85,177.8,177.7Z"/><path class="cls-1" d="M81.74,197.69l1.61-.27.31-1.61h28.6l.28,1.55,1.59.36V210l-1.55.21-.35,1.63H83.64l-.23-1.59L81.74,210Z"/><path class="cls-1" d="M263.12,130.33c-.08-.52-.14-1-.22-1.56l-1.63-.31V99.86l1.58-.27.28-1.62h12.31l.32,1.62,1.6.27v28.58l-1.59.29c-.09.46-.2,1-.34,1.6Z"/><path class="cls-1" d="M165.24,32.6,165,31l-1.67-.35v-28L165.56.56,165.25,0c3.86,0,7.72,0,11.57.06.44,0,.85.92,1.05,1.67l1.67.32V4.13q0,12.33,0,24.66c0,1.18.14,2.38-1.76,2,.19,1.81-.83,1.86-2.07,1.84C172.28,32.57,168.83,32.6,165.24,32.6Z"/><path class="cls-1" d="M324.21,440.36h-12c-.3-.89-.34-2.06-1.76-1.95-.1,0-.35-.51-.35-.78,0-3.81,0-7.62,0-11.49,1.18-.14,2.19-.37,1.84-1.91h12.42c.23,1,.36,2.21,2.06,1.71,0,4.06,0,7.87,0,11.67a1.37,1.37,0,0,1-.5.87c-.57.49-1.21.9-1.81,1.35Z"/><path class="cls-1" d="M229,247.05c.46-.6.9-1.22,1.39-1.79a1.41,1.41,0,0,1,.83-.54c3.81,0,7.63,0,10.93,0l2.19,2.35.46-.27c0,3.81,0,7.62,0,11.43a1.36,1.36,0,0,1-.53.85c-.57.51-1.2.95-1.81,1.42l.23.43h-12l.23-.37c-.61-.48-1.24-.94-1.82-1.46a1.43,1.43,0,0,1-.53-.85c0-3.82,0-7.63,0-11.44Z"/><path class="cls-1" d="M165.6,325.76l-2-1.89-.36.22c0-3.81,0-7.62,0-11.44a1.44,1.44,0,0,1,.53-.83c.57-.49,1.2-.92,1.8-1.38l-.27-.54c3.82,0,7.63,0,11.45,0a1.44,1.44,0,0,1,.86.52c.52.57,1,1.2,1.46,1.81l.38-.21V324l-.3-.22c-.54.69-1,1.41-1.61,2.07a1.2,1.2,0,0,1-.8.39c-3.81,0-7.62,0-11.44,0Z"/><path class="cls-1" d="M78.94,326.26l2.21,2.34.45-.26c0,3.81,0,7.62,0,11.43a1.4,1.4,0,0,1-.53.85c-.58.51-1.21,1-1.83,1.43l.24.42h-12l.23-.37c-.61-.49-1.24-1-1.82-1.47a1.5,1.5,0,0,1-.54-.85c0-3.81,0-7.62,0-11.44l.53.27c.45-.6.89-1.22,1.38-1.79a1.36,1.36,0,0,1,.83-.54C71.84,326.24,75.65,326.26,78.94,326.26Z"/><path class="cls-1" d="M244.82,389.45c-1.53-.18-2,.61-2,2-3.94,0-7.79,0-11.65,0-.25,0-.53-.39-.74-.63-.46-.52-.89-1.07-1.32-1.61l-.6.24v-6.61c0-1.38,0-2.76,0-4.13,0-.9,0-1.65,1.22-1.81.38,0,.65-.93,1.16-1.71,2.92,0,6.13,0,9.34,0,1.17,0,2.81-.65,3,1.49a.16.16,0,0,0,.1.11c2.49.32,1.49,2.26,1.55,3.57C244.9,383.32,244.82,386.33,244.82,389.45Z"/><path class="cls-1" d="M312.45,97.41c-.61-.48-1.24-.94-1.82-1.45a1.5,1.5,0,0,1-.53-.86c0-3.81,0-7.62,0-11.43l.54.26c.45-.6.88-1.23,1.37-1.79a1.39,1.39,0,0,1,.84-.53,106.27,106.27,0,0,1,11.23.32l1.9,2,.44-.27c0,3.81,0,7.62,0,11.44a1.43,1.43,0,0,1-.54.84c-.58.52-1.21,1-1.82,1.45l.24.4h-12Z"/><path class="cls-1" d="M260.66,405.39c-.49.65-1,1.34-1.49,1.95a1.41,1.41,0,0,1-.93.42c-3.76,0-7.51,0-11.27,0l.25-.48c-.63-.49-1.3-.94-1.88-1.48a1.58,1.58,0,0,1-.48-1c0-3.44-.05-6.89,0-10.33,0-.39.42-.82.73-1.15s1-.88,1.48-1.31l-.22-.57h10.41c1,0,2-.23,2.19,1.33,0,.33,1,.57,1.61.89v11.95Z"/><path class="cls-1" d="M114.33,214l1.54-.35c0-1.67,1.08-1.71,2.4-1.68,3.39.06,6.78,0,10.21,0l.37,1.71c1.64-.16,1.72.85,1.7,2.09-.06,3.45,0,6.89,0,10.44l-1.67.27-.36,1.69H116.24c-.11-.6-.2-1.1-.3-1.68l-1.61-.23Z"/><path class="cls-1" d="M48.82,210l-1.57.21-.31,1.63H34.63l-.28-1.55L32.76,210V197.7l1.51-.28.37-1.59H47l.22,1.53,1.63.36Z"/><path class="cls-1" d="M16.34,210l-1.66.29-.36,1.61H2.05l-.23-1.58L.15,210V197.75l1.6-.36.31-1.57H14.3l.4,1.61c1.56-.15,1.68.82,1.66,2.08C16.3,203,16.34,206.49,16.34,210Z"/><path class="cls-1" d="M471.23,179.44c.08.62.15,1.09.22,1.65l1.7.38v12.26l-1.68.29c-.08.54-.15,1-.23,1.62H459c-.12-.57-.23-1.07-.36-1.67-1.49.14-1.71-.66-1.68-1.93.08-3.49,0-7,0-10.54l1.68-.39c-.13-1.59.84-1.71,2.1-1.69C464.22,179.49,467.72,179.44,471.23,179.44Z"/><path class="cls-1" d="M279.07,177.74l-1.5-.3V165.15l1.52-.25c.11-.51.21-1,.34-1.65h12.29c.09.49.18,1,.3,1.61l1.72.32v5.43c0,1.75,0,3.5,0,5.25,0,1.55,0,1.55-1.69,1.89l-.34,1.67c-3.85,0-7.71,0-11.56-.06-.41,0-.8-.81-1.2-1.24Z"/><path class="cls-1" d="M34.26,177.75l-1.54-.34V165.17l1.56-.27.36-1.64H47l.26,1.64,1.7.26c0,3.86,0,7.67-.05,11.48,0,.45-.84.88-1.29,1.33l-.32-.26-.37,1.73H36.47C34.67,179.42,34.67,179.42,34.26,177.75Z"/><path class="cls-1" d="M114.13,340.54l-1.56.31-.36,1.59H100l-.29-1.54c-1.61,0-1.78-1-1.75-2.35.09-3.38,0-6.77,0-10.29,1.25,0,2.19-.31,1.87-1.9H112.2l.36,1.61,1.57.29Z"/><path class="cls-1" d="M292,96.11c-.11.64-.18,1.1-.28,1.75-3.88,0-7.73,0-11.59-.06-.43,0-.83-.93-1.47-1.7l-1.1-.22V83.59l1.52-.25.34-1.65h12.28L292,83.3l1.72.32v5.91c0,1.59-.09,3.19,0,4.77C293.83,95.56,293.44,96.21,292,96.11Z"/><path class="cls-1" d="M291.73,48.9c.12.68.19,1.14.29,1.7,1.54-.11,1.77.76,1.74,2.06-.08,3.5,0,7,0,10.52l-1.73.23-.25,1.69h-12.3l-.31-1.65-1.61-.27V50.92l1.63-.38c-.2-1.71.91-1.66,2.11-1.65C284.71,48.93,288.16,48.9,291.73,48.9Z"/><path class="cls-1" d="M263.15,424.1c-.11-.67-.18-1.13-.27-1.7-1.65.11-1.79-.86-1.76-2.2.09-3.44,0-6.88,0-10.36l1.7-.28c.1-.55.18-1.06.28-1.66h12.31c.1.57.2,1.07.31,1.65l1.61.27v12.26c-1,.18-2,.22-1.89,1.6,0,.11-.58.4-.9.4C270.81,424.11,267.05,424.1,263.15,424.1Z"/><path class="cls-1" d="M144.83,16.33c.09.62.15,1.09.22,1.66l1.66.32V30.62l-1.65.29-.22,1.61H132.57L132.23,31c-1.63,0-1.75-1-1.71-2.37.08-3.38,0-6.77,0-10.21l1.7-.38c-.14-1.62.85-1.71,2.1-1.69C137.83,16.37,141.33,16.33,144.83,16.33Z"/><path class="cls-1" d="M275.47,440.48l.27,1.6,1.61.3v12.31l-1.61.26-.29,1.63H263.14c-.08-.52-.17-1-.26-1.6l-1.64-.28V442.4l1.59-.33c.09-.5.19-1,.3-1.59Z"/><path class="cls-1" d="M293.75,454.58c0-3.81,0-7.62.06-11.43,0-.45.86-.88,1.58-1.1.12-.5.23-1,.36-1.57h12.3l.2,1.55,1.65.36V454.7l-1.64.25c-.07.54-.14,1.05-.23,1.72-3.88,0-7.74,0-11.6,0-.27,0-.59-.32-.8-.57-.45-.52-.84-1.09-1.26-1.64Z"/><path class="cls-1" d="M458.66,442.13c-.18-1.78.9-1.76,2.1-1.74,3.45,0,6.9,0,10.44,0l.27,1.64,1.65.36v12.25l-1.67.34-.23,1.68c-3.84,0-7.66.05-11.47-.06-.46,0-.9-.81-1.35-1.24l.27-.34-1.73-.4v-6.42c0-1.38.09-2.77,0-4.14S457.13,442,458.66,442.13Z"/><path class="cls-1" d="M179.53,470.94l-1.66.26c.14,1.87-1.09,1.84-2.47,1.81-3.34-.06-6.68,0-10.11,0l-.28-1.72-1.77-.36c0-3.81,0-7.62.06-11.43,0-.46.84-.9,1.29-1.35l.33.26.4-1.69c3.81,0,7.67,0,11.52,0,.28,0,.76.34.78.56.09.81.38,1.24,1.26,1.31.24,0,.62.57.62.88C179.55,463.3,179.53,467.11,179.53,470.94Z"/><path class="cls-1" d="M279.41,440.31c-.1-.6-.17-1.06-.26-1.6l-1.62-.3V426.09l1.59-.27c.1-.53.19-1,.31-1.62h12.32c.09.54.17,1,.27,1.62l1.63.27v12.3l-1.64.3c-.08.52-.16,1-.26,1.62Z"/><path class="cls-1" d="M373.37,359l.22,1.53,1.63.36v12.28l-1.58.28-.3,1.6H361l-.28-1.56-1.59-.31V360.81l1.51-.28c.11-.47.23-1,.37-1.58Z"/><path class="cls-1" d="M81.55,32.71c0,.55.07,1.06.07,1.58q0,22.77,0,45.55c0,1.25-.23,1.76-1.64,1.76q-22.94-.07-45.89,0c-.42,0-.84,0-1.36-.06V32.71Z"/><path class="cls-1" d="M440.54,81.56h-1.73c-15.08,0-30.17,0-45.26,0-1.54,0-1.93-.43-1.92-1.95.05-15.08,0-30.16,0-45.23V32.73h48.88Z"/><path class="cls-1" d="M81.62,440.33H32.73V391.51c.59,0,1.11-.07,1.63-.07,15.14,0,30.28,0,45.42,0,1.42,0,1.88.33,1.88,1.83-.06,15.13,0,30.27,0,45.4Z"/></g></g></svg>